<svg width="710" height="240" viewBox="0 0 710 240" fill="none" xmlns="http://www.w3.org/2000/svg">
<path d="M66.7323 217.122C139.806 209.192 176.061 159.901 197.616 122.949C194.829 112.635 190.223 102.935 184.847 94.1359C179.762 106.391 160.865 153.594 94.2525 183.743C48.4553 204.471 19.0078 193.961 19.0078 193.961C19.0078 193.961 21.6017 200.017 24.5845 203.849C34.9516 216.471 48.498 226.489 64.0401 232.75C75.6379 237.42 88.3425 240 101.667 240C153.049 240 195.265 201.679 200 152.701C147.532 226.864 66.7365 217.118 66.7365 217.118L66.7323 217.122Z" fill="#F1B545"/>
<path d="M178.556 62.3468C178.578 62.1506 178.621 61.9253 178.638 61.7291C178.638 61.7291 178.595 61.8084 178.531 61.9169C176.322 25.9538 134.716 0 134.716 0C134.618 23.6957 126.187 31.9435 126.187 31.9435C74.6293 106.257 126.157 121.538 126.157 121.538C109.491 74.1467 145.913 37.7454 145.913 37.7454C127.46 83.6801 159.07 105.56 129.918 131.084C43.6947 198.319 18.9992 144.591 33.0114 106.094C54.3481 59.8508 98.7821 41.9068 98.7821 41.9068C44.2246 41.9068 0 85.1034 0 138.393C0 207.698 62.2409 182.808 89.0047 171.426C180.941 128.788 179.061 71.9804 178.552 62.3385L178.556 62.3468Z" fill="#078068"/>
<path d="M126.072 121.693C126.072 121.693 123.82 94.0232 79.1292 109.696C79.1292 109.696 73.8687 112.781 61.4419 109.655C61.4419 109.655 81.8983 164.927 125.243 128.776C125.243 128.776 107.077 117.151 79.9625 120.282C79.9625 120.282 108.94 110.465 126.067 121.688" fill="#078068"/>
<path d="M293.75 167H232.312V77.375H293.75V95.3125H250.25V113.25H279.688V131.188H250.25V149.062H293.75V167ZM321.625 167L296.125 100.062H315.562L330.188 141.812L344.75 100.062H364.25L338.75 167H321.625ZM395.375 150.625C396.042 150.833 396.708 150.979 397.375 151.062C398.042 151.104 398.708 151.125 399.375 151.125C401.042 151.125 402.646 150.896 404.188 150.438C405.729 149.979 407.167 149.333 408.5 148.5C409.875 147.625 411.083 146.583 412.125 145.375C413.208 144.125 414.083 142.75 414.75 141.25L427.25 153.812C425.667 156.062 423.833 158.083 421.75 159.875C419.708 161.667 417.479 163.188 415.062 164.438C412.688 165.688 410.167 166.625 407.5 167.25C404.875 167.917 402.167 168.25 399.375 168.25C394.667 168.25 390.229 167.375 386.062 165.625C381.938 163.875 378.312 161.438 375.188 158.312C372.104 155.188 369.667 151.479 367.875 147.188C366.083 142.854 365.188 138.104 365.188 132.938C365.188 127.646 366.083 122.812 367.875 118.438C369.667 114.062 372.104 110.333 375.188 107.25C378.312 104.167 381.938 101.771 386.062 100.062C390.229 98.3542 394.667 97.5 399.375 97.5C402.167 97.5 404.896 97.8333 407.562 98.5C410.229 99.1667 412.75 100.125 415.125 101.375C417.542 102.625 419.792 104.167 421.875 106C423.958 107.792 425.792 109.812 427.375 112.062L395.375 150.625ZM404.125 115.438C403.333 115.146 402.542 114.958 401.75 114.875C401 114.792 400.208 114.75 399.375 114.75C397.042 114.75 394.833 115.188 392.75 116.062C390.708 116.896 388.917 118.104 387.375 119.688C385.875 121.271 384.688 123.188 383.812 125.438C382.938 127.646 382.5 130.146 382.5 132.938C382.5 133.562 382.521 134.271 382.562 135.062C382.646 135.854 382.75 136.667 382.875 137.5C383.042 138.292 383.229 139.062 383.438 139.812C383.646 140.562 383.917 141.229 384.25 141.812L404.125 115.438ZM453.062 167H436V100.062H440.125L445.75 106.562C448.5 104.062 451.604 102.146 455.062 100.812C458.562 99.4375 462.208 98.75 466 98.75C470.083 98.75 473.938 99.5417 477.562 101.125C481.188 102.667 484.354 104.812 487.062 107.562C489.771 110.271 491.896 113.458 493.438 117.125C495.021 120.75 495.812 124.625 495.812 128.75V167H478.75V128.75C478.75 127 478.417 125.354 477.75 123.812C477.083 122.229 476.167 120.854 475 119.688C473.833 118.521 472.479 117.604 470.938 116.938C469.396 116.271 467.75 115.938 466 115.938C464.208 115.938 462.521 116.271 460.938 116.938C459.354 117.604 457.979 118.521 456.812 119.688C455.646 120.854 454.729 122.229 454.062 123.812C453.396 125.354 453.062 127 453.062 128.75V167ZM540.688 167C536.562 167 532.688 166.229 529.062 164.688C525.438 163.104 522.25 160.958 519.5 158.25C516.792 155.5 514.646 152.312 513.062 148.688C511.521 145.062 510.75 141.188 510.75 137.062V117.188H502.438V100.188H510.75V73.4375H527.75V100.188H553.625V117.188H527.75V137.062C527.75 138.854 528.083 140.542 528.75 142.125C529.417 143.667 530.333 145.021 531.5 146.188C532.667 147.354 534.042 148.292 535.625 149C537.208 149.667 538.896 150 540.688 150H553.625V167H540.688ZM583.375 81.875C583.375 83.4583 583.062 84.9375 582.438 86.3125C581.854 87.6875 581.042 88.8958 580 89.9375C578.958 90.9375 577.729 91.75 576.312 92.375C574.938 92.9583 573.458 93.25 571.875 93.25C570.292 93.25 568.792 92.9583 567.375 92.375C566 91.75 564.792 90.9375 563.75 89.9375C562.75 88.8958 561.938 87.6875 561.312 86.3125C560.729 84.9375 560.438 83.4583 560.438 81.875C560.438 80.3333 560.729 78.875 561.312 77.5C561.938 76.0833 562.75 74.875 563.75 73.875C564.792 72.8333 566 72.0208 567.375 71.4375C568.792 70.8125 570.292 70.5 571.875 70.5C573.458 70.5 574.938 70.8125 576.312 71.4375C577.729 72.0208 578.958 72.8333 580 73.875C581.042 74.875 581.854 76.0833 582.438 77.5C583.062 78.875 583.375 80.3333 583.375 81.875ZM580.438 167H563.25V100.062H580.438V167ZM615.188 167H598.125V117.062H589.812V100.062H598.125V96.875C598.125 92.75 598.896 88.875 600.438 85.25C602.021 81.625 604.167 78.4792 606.875 75.8125C609.625 73.1042 612.812 70.9792 616.438 69.4375C620.062 67.8542 623.938 67.0625 628.062 67.0625H640.875V84.0625H628.062C626.229 84.0625 624.521 84.3958 622.938 85.0625C621.396 85.6875 620.042 86.5833 618.875 87.75C617.75 88.875 616.854 90.2292 616.188 91.8125C615.521 93.3542 615.188 95.0417 615.188 96.875V100.062H636.125V117.062H615.188V167ZM659.875 192.5V175.312L669.375 175.438C671.042 175.438 672.646 175.167 674.188 174.625C675.729 174.083 677.146 173.333 678.438 172.375C679.771 171.417 680.938 170.271 681.938 168.938C682.938 167.646 683.75 166.229 684.375 164.688C682.5 165.479 680.583 166.271 678.625 167.062C676.708 167.854 674.771 168.25 672.812 168.25C668.688 168.25 664.812 167.521 661.188 166.062C657.562 164.604 654.375 162.542 651.625 159.875C648.917 157.167 646.771 153.896 645.188 150.062C643.646 146.188 642.875 141.854 642.875 137.062V100.062H659.875V137.062C659.875 139.438 660.208 141.521 660.875 143.312C661.583 145.062 662.521 146.542 663.688 147.75C664.854 148.917 666.208 149.792 667.75 150.375C669.333 150.958 671.021 151.25 672.812 151.25C674.562 151.25 676.208 150.854 677.75 150.062C679.333 149.229 680.708 148.146 681.875 146.812C683.042 145.479 683.958 143.979 684.625 142.312C685.292 140.604 685.625 138.854 685.625 137.062V100.062H702.812V158.562C702.771 163.271 701.854 167.688 700.062 171.812C698.271 175.938 695.812 179.542 692.688 182.625C689.604 185.708 686 188.146 681.875 189.938C677.75 191.729 673.333 192.625 668.625 192.625L659.875 192.5Z" fill="#078068"/>
</svg>
