<svg width="710" height="240" viewBox="0 0 710 240" fill="none" xmlns="http://www.w3.org/2000/svg">
<path d="M66.7323 217.122C139.806 209.192 176.061 159.901 197.616 122.949C194.829 112.635 190.223 102.935 184.847 94.1359C179.762 106.391 160.865 153.594 94.2525 183.743C48.4553 204.471 19.0078 193.961 19.0078 193.961C19.0078 193.961 21.6017 200.017 24.5845 203.849C34.9516 216.471 48.498 226.489 64.0401 232.75C75.6379 237.42 88.3425 240 101.667 240C153.049 240 195.265 201.679 200 152.701C147.532 226.864 66.7365 217.118 66.7365 217.118L66.7323 217.122Z" fill="#F1B545"/>
<path d="M178.556 62.3468C178.578 62.1506 178.621 61.9253 178.638 61.7291C178.638 61.7291 178.595 61.8084 178.531 61.9169C176.322 25.9538 134.716 0 134.716 0C134.618 23.6957 126.187 31.9435 126.187 31.9435C74.6293 106.257 126.157 121.538 126.157 121.538C109.491 74.1467 145.913 37.7454 145.913 37.7454C127.46 83.6801 159.07 105.56 129.918 131.084C43.6947 198.319 18.9992 144.591 33.0114 106.094C54.3481 59.8508 98.7821 41.9068 98.7821 41.9068C44.2246 41.9068 0 85.1034 0 138.393C0 207.698 62.2409 182.808 89.0047 171.426C180.941 128.788 179.061 71.9804 178.552 62.3385L178.556 62.3468Z" fill="white"/>
<path d="M126.072 121.693C126.072 121.693 123.82 94.0232 79.1292 109.696C79.1292 109.696 73.8687 112.781 61.4419 109.655C61.4419 109.655 81.8983 164.927 125.243 128.776C125.243 128.776 107.077 117.151 79.9625 120.282C79.9625 120.282 108.94 110.465 126.067 121.688" fill="white"/>
<path d="M293.75 188H232.312V98.375H293.75V116.312H250.25V134.25H279.688V152.188H250.25V170.062H293.75V188ZM321.625 188L296.125 121.062H315.562L330.188 162.812L344.75 121.062H364.25L338.75 188H321.625ZM395.375 171.625C396.042 171.833 396.708 171.979 397.375 172.062C398.042 172.104 398.708 172.125 399.375 172.125C401.042 172.125 402.646 171.896 404.188 171.438C405.729 170.979 407.167 170.333 408.5 169.5C409.875 168.625 411.083 167.583 412.125 166.375C413.208 165.125 414.083 163.75 414.75 162.25L427.25 174.812C425.667 177.062 423.833 179.083 421.75 180.875C419.708 182.667 417.479 184.188 415.062 185.438C412.688 186.688 410.167 187.625 407.5 188.25C404.875 188.917 402.167 189.25 399.375 189.25C394.667 189.25 390.229 188.375 386.062 186.625C381.938 184.875 378.312 182.438 375.188 179.312C372.104 176.188 369.667 172.479 367.875 168.188C366.083 163.854 365.188 159.104 365.188 153.938C365.188 148.646 366.083 143.812 367.875 139.438C369.667 135.062 372.104 131.333 375.188 128.25C378.312 125.167 381.938 122.771 386.062 121.062C390.229 119.354 394.667 118.5 399.375 118.5C402.167 118.5 404.896 118.833 407.562 119.5C410.229 120.167 412.75 121.125 415.125 122.375C417.542 123.625 419.792 125.167 421.875 127C423.958 128.792 425.792 130.812 427.375 133.062L395.375 171.625ZM404.125 136.438C403.333 136.146 402.542 135.958 401.75 135.875C401 135.792 400.208 135.75 399.375 135.75C397.042 135.75 394.833 136.188 392.75 137.062C390.708 137.896 388.917 139.104 387.375 140.688C385.875 142.271 384.688 144.188 383.812 146.438C382.938 148.646 382.5 151.146 382.5 153.938C382.5 154.562 382.521 155.271 382.562 156.062C382.646 156.854 382.75 157.667 382.875 158.5C383.042 159.292 383.229 160.062 383.438 160.812C383.646 161.562 383.917 162.229 384.25 162.812L404.125 136.438ZM453.062 188H436V121.062H440.125L445.75 127.562C448.5 125.062 451.604 123.146 455.062 121.812C458.562 120.438 462.208 119.75 466 119.75C470.083 119.75 473.938 120.542 477.562 122.125C481.188 123.667 484.354 125.812 487.062 128.562C489.771 131.271 491.896 134.458 493.438 138.125C495.021 141.75 495.812 145.625 495.812 149.75V188H478.75V149.75C478.75 148 478.417 146.354 477.75 144.812C477.083 143.229 476.167 141.854 475 140.688C473.833 139.521 472.479 138.604 470.938 137.938C469.396 137.271 467.75 136.938 466 136.938C464.208 136.938 462.521 137.271 460.938 137.938C459.354 138.604 457.979 139.521 456.812 140.688C455.646 141.854 454.729 143.229 454.062 144.812C453.396 146.354 453.062 148 453.062 149.75V188ZM540.688 188C536.562 188 532.688 187.229 529.062 185.688C525.438 184.104 522.25 181.958 519.5 179.25C516.792 176.5 514.646 173.312 513.062 169.688C511.521 166.062 510.75 162.188 510.75 158.062V138.188H502.438V121.188H510.75V94.4375H527.75V121.188H553.625V138.188H527.75V158.062C527.75 159.854 528.083 161.542 528.75 163.125C529.417 164.667 530.333 166.021 531.5 167.188C532.667 168.354 534.042 169.292 535.625 170C537.208 170.667 538.896 171 540.688 171H553.625V188H540.688ZM583.375 102.875C583.375 104.458 583.062 105.938 582.438 107.312C581.854 108.688 581.042 109.896 580 110.938C578.958 111.938 577.729 112.75 576.312 113.375C574.938 113.958 573.458 114.25 571.875 114.25C570.292 114.25 568.792 113.958 567.375 113.375C566 112.75 564.792 111.938 563.75 110.938C562.75 109.896 561.938 108.688 561.312 107.312C560.729 105.938 560.438 104.458 560.438 102.875C560.438 101.333 560.729 99.875 561.312 98.5C561.938 97.0833 562.75 95.875 563.75 94.875C564.792 93.8333 566 93.0208 567.375 92.4375C568.792 91.8125 570.292 91.5 571.875 91.5C573.458 91.5 574.938 91.8125 576.312 92.4375C577.729 93.0208 578.958 93.8333 580 94.875C581.042 95.875 581.854 97.0833 582.438 98.5C583.062 99.875 583.375 101.333 583.375 102.875ZM580.438 188H563.25V121.062H580.438V188ZM615.188 188H598.125V138.062H589.812V121.062H598.125V117.875C598.125 113.75 598.896 109.875 600.438 106.25C602.021 102.625 604.167 99.4792 606.875 96.8125C609.625 94.1042 612.812 91.9792 616.438 90.4375C620.062 88.8542 623.938 88.0625 628.062 88.0625H640.875V105.062H628.062C626.229 105.062 624.521 105.396 622.938 106.062C621.396 106.688 620.042 107.583 618.875 108.75C617.75 109.875 616.854 111.229 616.188 112.812C615.521 114.354 615.188 116.042 615.188 117.875V121.062H636.125V138.062H615.188V188ZM659.875 213.5V196.312L669.375 196.438C671.042 196.438 672.646 196.167 674.188 195.625C675.729 195.083 677.146 194.333 678.438 193.375C679.771 192.417 680.938 191.271 681.938 189.938C682.938 188.646 683.75 187.229 684.375 185.688C682.5 186.479 680.583 187.271 678.625 188.062C676.708 188.854 674.771 189.25 672.812 189.25C668.688 189.25 664.812 188.521 661.188 187.062C657.562 185.604 654.375 183.542 651.625 180.875C648.917 178.167 646.771 174.896 645.188 171.062C643.646 167.188 642.875 162.854 642.875 158.062V121.062H659.875V158.062C659.875 160.438 660.208 162.521 660.875 164.312C661.583 166.062 662.521 167.542 663.688 168.75C664.854 169.917 666.208 170.792 667.75 171.375C669.333 171.958 671.021 172.25 672.812 172.25C674.562 172.25 676.208 171.854 677.75 171.062C679.333 170.229 680.708 169.146 681.875 167.812C683.042 166.479 683.958 164.979 684.625 163.312C685.292 161.604 685.625 159.854 685.625 158.062V121.062H702.812V179.562C702.771 184.271 701.854 188.688 700.062 192.812C698.271 196.938 695.812 200.542 692.688 203.625C689.604 206.708 686 209.146 681.875 210.938C677.75 212.729 673.333 213.625 668.625 213.625L659.875 213.5Z" fill="#FEFEFE"/>
</svg>
